<?xml version="1.0" standalone="no"?>
<!DOCTYPE svg PUBLIC "-//W3C//DTD SVG 20010904//EN"
 "http://www.w3.org/TR/2001/REC-SVG-20010904/DTD/svg10.dtd">
<svg version="1.0" xmlns="http://www.w3.org/2000/svg"
 width="256.000000pt" height="256.000000pt" viewBox="0 0 256.000000 256.000000"
 preserveAspectRatio="xMidYMid meet">
<metadata>
Created by potrace 1.11, written by Peter Selinger 2001-2013
</metadata>
<g transform="translate(0.000000,256.000000) scale(0.100000,-0.100000)"
fill="#000000" stroke="none">
<path d="M920 2220 c0 -18 -7 -20 -60 -20 -53 0 -60 -2 -60 -20 0 -18 -7 -20
-60 -20 l-60 0 0 -60 c0 -53 -2 -60 -20 -60 -13 0 -20 -7 -20 -20 0 -17 -7
-20 -40 -20 -33 0 -40 -3 -40 -20 0 -18 -7 -20 -60 -20 l-60 0 0 -60 c0 -53
-2 -60 -20 -60 -13 0 -20 -7 -20 -20 0 -18 -7 -20 -60 -20 -53 0 -60 -2 -60
-20 0 -13 -7 -20 -20 -20 -18 0 -20 -7 -20 -80 0 -73 -2 -80 -20 -80 -18 0
-20 -7 -20 -80 l0 -80 -60 0 -60 0 0 -100 0 -100 -40 0 -40 0 0 -200 0 -200
100 0 100 0 0 -80 0 -80 80 0 80 0 0 -80 c0 -73 2 -80 20 -80 13 0 20 -7 20
-20 0 -17 7 -20 40 -20 l40 0 0 -80 0 -80 900 0 900 0 0 80 0 80 80 0 80 0 0
180 c0 173 -1 180 -20 180 -19 0 -20 7 -20 180 l0 180 40 0 c33 0 40 3 40 20
0 17 7 20 40 20 l40 0 0 80 0 80 -80 0 c-73 0 -80 2 -80 20 0 18 7 20 80 20
l80 0 0 100 0 100 -80 0 -80 0 0 80 0 80 -40 0 c-33 0 -40 3 -40 20 0 17 -7
20 -40 20 l-40 0 0 80 0 80 -40 0 c-33 0 -40 3 -40 20 0 19 -7 20 -100 20
l-100 0 0 60 c0 53 -2 60 -20 60 -13 0 -20 7 -20 20 0 19 -7 20 -120 20 -113
0 -120 1 -120 20 0 20 -7 20 -380 20 -373 0 -380 0 -380 -20z"/>
</g>
</svg>
